arm26_elbow_motion
version=1
nRows=333
nColumns=2
inDegrees=no
endheader
time	r_elbow_flex
22.349418	2.23371597
22.366061	2.21706257
22.382909	2.19790705
22.391031	2.17835337
22.407753	2.15861898
22.423506	2.13811102
22.466713	2.11604097
22.482786	2.09422930
22.490850	2.07389405
22.499351	2.05509270
22.515967	2.03337205
22.531986	2.00983651
22.543848	1.98748576
22.563756	1.96781270
22.584404	1.94805235
22.590871	1.92553980
22.617009	1.90107170
22.622838	1.87935169
22.646800	1.85875830
22.670133	1.83694965
22.699414	1.81236840
22.720159	1.78734114
22.723833	1.76421294
22.735973	1.74311489
22.750928	1.72123392
22.770176	1.69875409
22.784029	1.67681729
22.793164	1.65653494
22.802522	1.63642600
22.827652	1.61488981
22.850641	1.59116814
22.859127	1.56730281
22.869565	1.54371553
22.894943	1.51975523
22.904117	1.49580638
22.919294	1.47215343
22.958055	1.44919426
23.012607	1.42704515
23.056729	1.40506111
23.081542	1.38391758
23.099697	1.36369918
23.115760	1.34362714
23.132472	1.32280652
23.149234	1.29759572
23.159076	1.27404265
23.169966	1.25155085
23.184480	1.22949715
23.201344	1.20824470
23.219918	1.18814336
23.233902	1.17003032
23.242228	1.15763329
23.252666	1.14402220
23.268279	1.12953148
23.278170	1.11503316
23.286319	1.10062622
23.295242	1.08559069
23.310493	1.06918917
23.319737	1.05219517
23.344657	1.03597011
23.353076	1.02036616
23.370456	1.00429891
23.434124	0.98818923
23.444352	0.97339806
23.467552	0.96074373
23.499534	0.95011330
23.511365	0.94122215
23.520816	0.93428366
23.552434	0.92930452
23.562904	0.92584800
23.586014	0.92349004
23.595577	0.92245438
23.616732	0.92282464
23.635441	0.92487453
23.644049	0.92831402
23.652762	0.93342108
23.667261	0.94135549
23.676181	0.95187742
23.686548	0.96337251
23.702384	0.97577282
23.717683	0.99031046
23.727263	1.00790746
23.763054	1.02798907
23.778155	1.04954031
23.799749	1.07304258
23.820390	1.09965559
23.833690	1.12961715
23.844187	1.16188059
23.866038	1.19600616
23.874555	1.23325507
23.885873	1.27347224
23.916595	1.31628183
23.935907	1.36197056
23.944711	1.41102185
23.952245	1.46354037
23.966928	1.51851650
23.977313	1.57342193
23.987496	1.62726786
24.009252	1.67903362
24.017226	1.72809842
24.033810	1.77297171
24.042961	1.81238641
24.066195	1.84671083
24.082728	1.87711773
24.101218	1.90484777
24.107232	1.93048790
24.119845	1.95376728
24.160101	1.97548012
24.169509	1.99634836
24.186630	2.01625507
24.196644	2.03609991
24.217844	2.05588044
24.249453	2.07549004
24.268779	2.09481557
24.274519	2.11325892
24.299999	2.13100167
24.307927	2.14829560
24.320137	2.16403583
24.369644	2.17702807
24.377162	2.18831566
24.401538	2.19834290
24.408676	2.20727542
24.433233	2.21476014
24.449571	2.22078450
24.466124	2.22603395
24.473918	2.23126942
24.499767	2.23604723
24.541394	2.24062188
24.566140	2.24513778
24.580720	2.25025309
24.593000	2.25619272
24.602154	2.26313354
24.615452	2.27117920
24.632121	2.28067675
24.651217	2.29194107
24.661023	2.30532065
24.683536	2.31960427
24.689218	2.33412644
24.698833	2.34815282
24.715595	2.36035584
24.730335	2.36920677
24.746608	2.37380022
24.758669	2.37383571
24.769531	2.37021526
24.780156	2.36389289
24.789474	2.35541498
24.805364	2.34601863
24.816581	2.33646948
24.823515	2.32703753
24.850364	2.31723891
24.861067	2.30639443
24.902548	2.29444775
24.918954	2.28132640
24.933046	2.26666517
24.942798	2.25089090
24.968190	2.23443555
24.982919	2.21742356
24.990473	2.20057808
24.998541	2.18351842
25.016196	2.16733601
25.023355	2.15200845
25.092944	2.13635513
25.130003	2.12018732
25.162296	2.10504148
25.177358	2.08616452
25.197362	2.06461730
25.215092	2.04079257
25.232176	2.01534677
25.249146	1.99334677
25.263852	1.97234093
25.272638	1.94884249
25.298610	1.92766156
25.313873	1.90939847
25.331958	1.89252520
25.347004	1.87642572
25.363612	1.85752471
25.371763	1.83917396
25.382668	1.82315563
25.399375	1.80682108
25.410777	1.78801768
25.432817	1.76812029
25.439803	1.74900545
25.448275	1.73030747
25.456923	1.70944353
25.482208	1.68603625
25.515341	1.66334329
25.522469	1.64249208
25.535617	1.62048806
25.550462	1.59408276
25.561109	1.56374214
25.571947	1.53285059
25.586891	1.50292030
25.593250	1.47184415
25.601877	1.43809844
25.635495	1.40428925
25.654078	1.37450095
25.711899	1.34889522
25.720537	1.32426758
25.736987	1.29899639
25.752299	1.27509676
25.762722	1.25507146
25.771263	1.23848968
25.779535	1.22204547
25.795298	1.20410418
25.803720	1.18669093
25.818890	1.17134510
25.852541	1.15759059
25.862095	1.14420593
25.877752	1.13094813
25.901991	1.11905246
25.923850	1.10921190
25.948606	1.10052897
25.967091	1.09232932
25.972584	1.08403189
25.981199	1.07496422
26.039786	1.06518844
26.053937	1.05533857
26.067816	1.04596092
26.073379	1.03732750
26.081227	1.03027978
26.098798	1.02610628
26.106592	1.02525332
26.116627	1.02761108
26.131444	1.03314468
26.149663	1.04182295
26.156288	1.05378074
26.169449	1.06878111
26.181638	1.08647421
26.197537	1.10774678
26.214272	1.13224472
26.222104	1.15906607
26.264940	1.18818839
26.277295	1.21999643
26.282936	1.25434548
26.292971	1.29103729
26.309270	1.32917980
26.320397	1.36811131
26.386092	1.40724834
26.396016	1.44610916
26.409072	1.48405893
26.434911	1.52029367
26.449808	1.55428807
26.474316	1.58687519
26.482881	1.61962700
26.492491	1.65368906
26.501734	1.68939795
26.515963	1.72687651
26.533692	1.76700619
26.551508	1.80950085
26.567978	1.85303795
26.585670	1.89678499
26.602705	1.93912609
26.611282	1.97967987
26.641864	2.01822059
26.653656	2.05360860
26.676515	2.08501487
26.684831	2.11306566
26.694520	2.13721824
26.717266	2.15878697
26.732102	2.17797494
26.750584	2.19401050
26.769363	2.20753583
26.776011	2.21921407
26.784290	2.22871036
26.801143	2.23668799
26.817073	2.24249433
26.860869	2.24623829
26.869191	2.24985823
26.877461	2.25355697
26.900832	2.25696600
26.915184	2.26115688
26.923578	2.26602836
26.933673	2.27250788
26.948458	2.28040553
26.966596	2.29026596
26.981667	2.30179975
27.014928	2.31545841
27.028979	2.32996603
27.065059	2.34496485
27.074951	2.35913513
27.089714	2.37167980
27.099018	2.38062893
27.121004	2.38540772
27.130890	2.38621301
27.151698	2.38316936
27.168905	2.37641084
27.177706	2.36671202
27.186748	2.35502744
27.194987	2.34154701
27.211526	2.32672662
27.220756	2.31067056
27.272635	2.29368362
27.281224	2.27577392
27.303328	2.25717630
27.319052	2.23807164
27.324411	2.21786540
27.333924	2.19734163
27.348171	2.17679891
27.401802	2.15696041
27.410932	2.13734903
27.419063	2.11687447
27.435341	2.09608802
27.452552	2.07770382
27.459733	2.06219526
27.476727	2.04732840
27.485737	2.03106126
27.500818	2.01578570
27.512080	2.00378906
27.518778	1.99328053
27.543160	1.97886160
27.552768	1.95986062
27.571680	1.93986992
27.620342	1.92194454
27.627330	1.90262028
27.635225	1.87789505
27.652435	1.84863089
27.662456	1.82144384
27.675885	1.79762657
27.700171	1.77461528
27.708710	1.74914929
27.750889	1.72319332
27.759260	1.69992195
27.776171	1.67878609
27.786979	1.65482943
27.803363	1.62621950
27.852726	1.59512070
27.862178	1.56351476
27.869677	1.53059853
27.881734	1.49508965
27.892298	1.45774508
27.901931	1.42153816
27.920424	1.38744671
27.936003	1.35443558
27.950665	1.32166125
